<svg width="33" height="29" viewBox="0 0 33 29" fill="none" xmlns="http://www.w3.org/2000/svg">
<path d="M6.50718 20.6986L5.60179 21.1199L5.60179 21.1199L6.50718 20.6986ZM6.04514 14.1461L5.09114 13.8509L5.09114 13.8509L6.04514 14.1461ZM26.5342 14.1461L27.4882 13.8509L27.4882 13.8509L26.5342 14.1461ZM26.0721 20.6986L25.1667 20.2773L25.1667 20.2773L26.0721 20.6986ZM19.0012 25.1399L18.8659 24.1505L19.0012 25.1399ZM13.5781 25.1399L13.4428 26.1293L13.5781 25.1399ZM11.0734 9.86449L10.8986 8.88127L11.0734 9.86449ZM21.506 9.86449L21.3312 10.8477L21.506 9.86449ZM12.5811 25.0036L12.7164 24.0142H12.7164L12.5811 25.0036ZM6.63086 20.9644L7.53625 20.543H7.53625L6.63086 20.9644ZM19.9982 25.0036L20.1335 25.993H20.1335L19.9982 25.0036ZM25.9484 20.9644L26.8538 21.3857V21.3857L25.9484 20.9644ZM26.4323 13.8168L25.4783 14.1121V14.1121L26.4323 13.8168ZM6.14704 13.8168L7.10103 14.1121H7.10103L6.14704 13.8168ZM20.5206 10.1457L19.6274 9.69899V9.69899L20.5206 10.1457ZM19.3438 10.2661C19.0971 10.7594 19.2969 11.3593 19.7902 11.606C20.2835 11.8527 20.8834 11.6528 21.1301 11.1595L19.3438 10.2661ZM12.0588 10.1457L12.9519 9.69899H12.9519L12.0588 10.1457ZM11.4492 11.1595C11.696 11.6528 12.2958 11.8527 12.7891 11.606C13.2824 11.3593 13.4823 10.7594 13.2355 10.2661L11.4492 11.1595ZM15.2816 4.35292L15.4297 5.34051L15.4297 5.34051L15.2816 4.35292ZM15.438 4.32947L15.2899 3.34188L15.2899 3.34188L15.438 4.32947ZM17.1413 4.32947L16.9932 5.31706L16.9932 5.31706L17.1413 4.32947ZM17.2977 4.35292L17.4458 3.36533L17.4458 3.36533L17.2977 4.35292ZM20.8505 7.24741L21.8193 7.00513L20.8505 7.24741ZM11.7288 7.24741L12.6976 7.48968V7.48968L11.7288 7.24741ZM19.8629 24.0142L18.8659 24.1505L19.1365 26.1293L20.1335 25.993L19.8629 24.0142ZM13.7133 24.1505L12.7164 24.0142L12.4458 25.993L13.4428 26.1293L13.7133 24.1505ZM25.4783 14.1121L25.5802 14.4413L27.4882 13.8509L27.3863 13.5216L25.4783 14.1121ZM25.1667 20.2773L25.043 20.543L26.8538 21.3857L26.9775 21.1199L25.1667 20.2773ZM7.53625 20.543L7.41257 20.2773L5.60179 21.1199L5.72547 21.3857L7.53625 20.543ZM6.99913 14.4413L7.10103 14.1121L5.19305 13.5216L5.09114 13.8509L6.99913 14.4413ZM7.41257 20.2773C6.5434 18.4096 6.40177 16.3716 6.99913 14.4413L5.09114 13.8509C4.34507 16.2616 4.52684 18.8101 5.60179 21.1199L7.41257 20.2773ZM25.5802 14.4413C26.1776 16.3716 26.0359 18.4096 25.1667 20.2773L26.9775 21.1199C28.0525 18.8101 28.2342 16.2616 27.4882 13.8509L25.5802 14.4413ZM18.8659 24.1505C17.1598 24.3838 15.4195 24.3838 13.7133 24.1505L13.4428 26.1293C15.3284 26.3872 17.2508 26.3872 19.1365 26.1293L18.8659 24.1505ZM11.2482 10.8477C14.5719 10.2568 18.0074 10.2568 21.3312 10.8477L21.6808 8.88127C18.1257 8.24921 14.4536 8.24921 10.8986 8.88127L11.2482 10.8477ZM12.7164 24.0142C10.2978 23.6835 8.36234 22.3181 7.53625 20.543L5.72547 21.3857C6.8866 23.8808 9.47591 25.587 12.4458 25.993L12.7164 24.0142ZM20.1335 25.993C23.1034 25.587 25.6927 23.8808 26.8538 21.3857L25.043 20.543C24.217 22.3181 22.2815 23.6835 19.8629 24.0142L20.1335 25.993ZM21.3312 10.8477C23.4397 11.2226 24.9923 12.5417 25.4783 14.1121L27.3863 13.5216C26.6375 11.102 24.375 9.36028 21.6808 8.88127L21.3312 10.8477ZM10.8986 8.88127C8.20435 9.36028 5.94185 11.102 5.19305 13.5216L7.10103 14.1121C7.58703 12.5417 9.13959 11.2226 11.2482 10.8477L10.8986 8.88127ZM19.6274 9.69899L19.3438 10.2661L21.1301 11.1595L21.4137 10.5924L19.6274 9.69899ZM11.1656 10.5924L11.4492 11.1595L13.2355 10.2661L12.9519 9.69899L11.1656 10.5924ZM15.4297 5.34051L15.5861 5.31706L15.2899 3.34188L15.1335 3.36533L15.4297 5.34051ZM16.9932 5.31706L17.1496 5.34051L17.4458 3.36533L17.2894 3.34188L16.9932 5.31706ZM19.8817 7.48968C20.0655 8.22469 19.9812 8.99159 19.6274 9.69899L21.4137 10.5924C21.9757 9.46871 22.1216 8.21377 21.8193 7.00513L19.8817 7.48968ZM10.76 7.00513C10.4577 8.21377 10.6036 9.46871 11.1656 10.5924L12.9519 9.69899C12.5981 8.99159 12.5138 8.22469 12.6976 7.48968L10.76 7.00513ZM15.5861 5.31706C16.0512 5.24731 16.5281 5.24731 16.9932 5.31706L17.2894 3.34188C16.6279 3.24268 15.9514 3.24268 15.2899 3.34188L15.5861 5.31706ZM21.8193 7.00513C21.3306 5.05093 19.5327 3.67828 17.4458 3.36533L17.1496 5.34051C18.6151 5.56028 19.6288 6.47819 19.8817 7.48968L21.8193 7.00513ZM12.6976 7.48968C12.9505 6.47819 13.9642 5.56028 15.4297 5.34051L15.1335 3.36533C13.0466 3.67828 11.2487 5.05093 10.76 7.00514L12.6976 7.48968Z" fill="#EB4C56"/>
</svg>
