<svg width="33" height="29" viewBox="0 0 33 29" fill="none" xmlns="http://www.w3.org/2000/svg">
<g clip-path="url(#clip0_2_753)">
<path d="M7.55566 26.2041C7.55566 22.991 9.81567 20.2542 12.8871 19.7478L13.1637 19.7022C15.6232 19.2967 18.1293 19.2967 20.5887 19.7022L20.8654 19.7478C23.9368 20.2542 26.1968 22.991 26.1968 26.2041C26.1968 27.5928 25.107 28.7187 23.7626 28.7187H9.98984C8.64548 28.7187 7.55566 27.5928 7.55566 26.2041Z" stroke="#EB4C56" stroke-width="1.99727"/>
<path d="M22.3133 9.99429C22.3133 12.8898 19.879 15.2371 16.8763 15.2371C13.8735 15.2371 11.4393 12.8898 11.4393 9.99429C11.4393 7.09876 13.8735 4.75146 16.8763 4.75146C19.879 4.75146 22.3133 7.09876 22.3133 9.99429Z" stroke="#EB4C56" stroke-width="1.99727"/>
</g>
<defs>
<clipPath id="clip0_2_753">
<rect width="31.9563" height="28.0773" fill="white" transform="translate(0.897949 0.756836)"/>
</clipPath>
</defs>
</svg>
