<svg width="139" height="53" viewBox="0 0 139 53" fill="none" xmlns="http://www.w3.org/2000/svg">
<g clip-path="url(#clip0_2_599)">
<path d="M1.33447 13.6489H11.2546C17.5866 13.6489 21.5968 18.7145 21.5968 25.6797C21.5968 29.4789 20.3304 32.856 17.7975 34.9666C16.1091 36.444 13.7873 37.2883 10.8324 37.2883H1.33447V13.6489ZM10.5158 33.1725C15.0538 33.1725 16.7423 30.4287 16.7423 25.7852C16.7423 21.1418 14.7372 17.8702 10.6214 17.8702H6.08346V33.278H10.5158V33.1725ZM22.3355 28.8457C22.3355 23.7801 25.9236 19.8754 31.2002 19.8754C36.4769 19.8754 40.065 23.7801 40.065 28.8457C40.065 33.9112 36.4769 37.816 31.2002 37.816C25.9236 37.816 22.3355 33.8057 22.3355 28.8457ZM35.4216 28.8457C35.4216 25.5741 33.8386 23.2524 31.0947 23.2524C28.3508 23.2524 26.7679 25.4686 26.7679 28.8457C26.7679 32.2227 28.2454 34.3334 31.0947 34.3334C33.9441 34.3334 35.4216 32.1172 35.4216 28.8457ZM40.9093 28.8457C40.9093 23.7801 44.1808 19.8754 49.3519 19.8754C53.7843 19.8754 56.4226 22.4082 57.0559 26.1018H52.6234C52.3068 24.6244 51.146 23.4635 49.5629 23.4635C46.8191 23.4635 45.4472 25.5741 45.4472 28.8457C45.4472 32.0117 46.7136 34.2278 49.4574 34.2278C51.2515 34.2278 52.5179 33.278 52.8345 31.3784H57.2668C56.9503 34.9666 54.2065 37.816 49.6685 37.816C44.2863 37.7105 40.9093 33.8057 40.9093 28.8457ZM69.0866 37.2883V35.2832H68.981C67.8201 36.8662 66.5538 37.7105 64.1265 37.7105C60.3273 37.7105 58.2167 35.2832 58.2167 31.5895V20.2975H62.649V30.8508C62.649 32.856 63.4933 33.9112 65.4984 33.9112C67.6091 33.9112 68.8755 32.3283 68.8755 30.1121V20.2975H73.4134V37.1828H69.0866V37.2883ZM95.2587 13.7545H99.7966V17.9758H95.2587V13.7545ZM95.2587 20.2975H99.7966V37.1828H95.2587V20.2975ZM101.591 37.7105H106.023C106.339 38.7657 107.395 39.61 109.4 39.61C111.933 39.61 113.199 38.3437 113.199 36.1274V34.2278H113.094C112.144 35.3887 110.772 36.2329 108.661 36.2329C104.862 36.2329 101.169 33.278 101.169 28.1069C101.169 23.0413 104.229 19.8754 108.45 19.8754C110.561 19.8754 112.144 20.7196 113.094 22.0916H113.199V20.2975H117.526V35.9163C117.526 38.3437 116.787 39.9266 115.521 41.0874C114.149 42.4594 111.933 42.9871 109.4 42.9871C104.968 42.9871 102.118 41.0874 101.591 37.7105ZM113.515 28.0014C113.515 25.5741 112.143 23.4635 109.506 23.4635C107.184 23.4635 105.706 25.2575 105.706 28.1069C105.706 30.9563 107.184 32.6449 109.506 32.6449C112.355 32.6449 113.515 30.5341 113.515 28.0014ZM123.963 22.6193C125.23 20.8252 126.813 19.8754 129.029 19.8754C132.512 19.8754 134.833 22.5137 134.833 26.2073V37.2883H130.295V26.9461C130.295 25.1521 129.24 23.8856 127.341 23.8856C125.335 23.8856 123.858 25.4686 123.858 27.7904V37.3938H119.531V20.5085H123.963V22.6193ZM85.022 23.0413C81.5394 22.3027 79.9565 21.6694 79.9565 19.7699C79.9565 18.0813 81.6449 17.026 84.1777 17.026C86.4994 17.026 88.2936 18.0813 88.7157 20.2975H93.3591C92.8315 15.7596 89.4544 13.2268 84.1777 13.2268C78.9011 13.2268 75.102 15.654 75.102 20.2975C75.102 25.2575 79.0066 26.3129 83.228 27.2627C86.816 28.1069 89.0322 28.529 89.0322 30.8508C89.0322 33.0669 86.9216 33.9112 84.4943 33.9112C81.1173 33.9112 79.5343 32.7504 79.2177 29.901H74.5743C74.7854 34.8611 78.3734 37.7105 84.811 37.7105C90.0876 37.7105 93.9924 35.0721 93.9924 30.2176C93.8868 25.2575 89.8765 24.0967 85.022 23.0413ZM136.733 23.4635C135.783 23.4635 134.939 22.6193 134.939 21.6694C134.939 20.7196 135.783 19.8754 136.733 19.8754C137.683 19.8754 138.527 20.7196 138.527 21.6694C138.527 22.6193 137.683 23.4635 136.733 23.4635ZM136.733 20.1919C135.889 20.1919 135.256 20.8252 135.256 21.6694C135.256 22.5137 135.889 23.1469 136.733 23.1469C137.577 23.1469 138.21 22.5137 138.21 21.6694C138.21 20.8252 137.577 20.1919 136.733 20.1919Z" fill="black"/>
<path d="M136.101 20.72H136.735C136.946 20.72 137.156 20.72 137.262 20.8255C137.368 20.931 137.474 21.0366 137.474 21.2476C137.474 21.5643 137.262 21.6698 137.156 21.7753L137.579 22.5141H137.156L136.84 21.8809H136.419V22.5141H136.101V20.72ZM136.419 21.0366V21.5643H136.735C136.84 21.5643 137.052 21.5643 137.052 21.2476C137.052 21.2476 137.052 21.0366 136.946 21.0366H136.419Z" fill="black"/>
</g>
<defs>
<clipPath id="clip0_2_599">
<rect width="137.779" height="52.9071" fill="white" transform="translate(0.820068)"/>
</clipPath>
</defs>
</svg>
