<svg width="158" height="53" viewBox="0 0 158 53" fill="none" xmlns="http://www.w3.org/2000/svg">
<g clip-path="url(#clip0_2_600)">
<path fill-rule="evenodd" clip-rule="evenodd" d="M3.46606 39.5172C-0.118291 35.9632 -0.118234 30.2012 3.46617 26.6472L13.2016 16.9945C16.2317 13.9902 20.8533 13.5256 24.3756 15.6006C25.4652 16.2424 25.4556 17.7148 24.5595 18.6033C23.6634 19.4918 22.2005 19.4153 20.9843 19.0626C19.4267 18.6109 17.6751 18.9941 16.4467 20.212L6.71127 29.8647C4.91907 31.6417 4.91905 34.5227 6.71123 36.2997C8.50344 38.0768 11.4092 38.0768 13.2014 36.2997L32.6721 16.9946C36.2566 13.4407 42.068 13.4407 45.6525 16.9946L55.388 26.6472C58.9724 30.2011 58.9724 35.9632 55.388 39.5172C51.8036 43.0711 45.9921 43.0711 42.4076 39.5172L39.1625 36.2997L35.1061 40.3216C32.076 43.326 27.4544 43.7906 23.932 41.7155C22.8425 41.0737 22.852 39.6014 23.7482 38.7128C24.6442 37.8243 26.107 37.9008 27.3234 38.2535C28.881 38.7052 30.6326 38.322 31.8609 37.1041L36.0333 32.9673C37.7615 31.2538 40.5634 31.2538 42.2917 32.9673L45.6527 36.2997C47.4449 38.0766 50.3506 38.0766 52.1428 36.2997C53.935 34.5227 53.935 31.6417 52.1428 29.8647L42.4073 20.2122C40.6151 18.4352 37.7094 18.4352 35.9172 20.2122L16.4466 39.5173C12.8621 43.0713 7.05049 43.0713 3.46606 39.5172Z" fill="black"/>
<path d="M94.7375 19.487C92.4821 19.487 90.7734 20.2946 89.6457 21.9099C88.6547 20.2946 87.0827 19.487 84.9982 19.487C82.8453 19.487 81.2732 20.2273 80.248 21.7417V19.9581H75.8397V36.7838H80.248V27.3278C80.248 24.8712 81.5124 23.5252 83.4603 23.5252C85.2715 23.5252 86.3309 24.703 86.3309 26.7221V36.7838H90.7392V27.3278C90.7392 24.8712 91.9012 23.5252 93.9174 23.5252C95.7286 23.5252 96.7879 24.703 96.7879 26.7221V36.7838H101.196V26.4192C101.196 22.2128 98.6675 19.487 94.7375 19.487Z" fill="black"/>
<path d="M117.584 21.9436C116.252 20.2946 114.406 19.487 112.014 19.487C109.725 19.487 107.777 20.362 106.136 22.0782C104.53 23.7944 103.71 25.8808 103.71 28.371C103.71 30.8612 104.53 32.9813 106.136 34.6975C107.777 36.4137 109.725 37.255 112.014 37.255C114.406 37.255 116.252 36.4473 117.584 34.7984V36.7838H121.993V19.9581H117.584V21.9436ZM109.451 31.8034C108.563 30.8948 108.118 29.7507 108.118 28.371C108.118 26.9913 108.563 25.8471 109.451 24.9722C110.34 24.0636 111.467 23.6261 112.834 23.6261C114.201 23.6261 115.329 24.0636 116.218 24.9722C117.14 25.8471 117.584 26.9913 117.584 28.371C117.584 29.7507 117.14 30.8948 116.218 31.8034C115.329 32.6784 114.201 33.1158 112.834 33.1158C111.467 33.1158 110.34 32.6784 109.451 31.8034Z" fill="black"/>
<path d="M138.259 22.8521V19.9581H125.444V24.0299H132.312L125.101 33.8898V36.7838H138.6V32.7119H131.013L138.259 22.8521Z" fill="black"/>
<path d="M157.032 30.1545C157.135 29.5152 157.203 28.9431 157.203 28.371C157.203 25.8471 156.384 23.7607 154.743 22.0445C153.137 20.3283 151.052 19.487 148.558 19.487C145.926 19.487 143.74 20.3283 142.064 22.0445C140.39 23.7271 139.535 25.8471 139.535 28.371C139.535 30.9285 140.39 33.0486 142.099 34.7311C143.808 36.4137 146.063 37.255 148.899 37.255C152.179 37.255 154.675 36.0435 156.349 33.6542L152.796 31.6352C151.941 32.7457 150.643 33.3178 148.967 33.3178C146.337 33.3178 144.731 32.2746 144.149 30.1545H157.032ZM144.081 26.7893C144.593 24.6357 146.199 23.3906 148.558 23.3906C150.573 23.3906 152.282 24.5011 152.796 26.7893H144.081Z" fill="black"/>
</g>
<defs>
<clipPath id="clip0_2_600">
<rect width="156.517" height="52.9071" fill="white" transform="translate(0.777832)"/>
</clipPath>
</defs>
</svg>
