<svg width="80" height="53" viewBox="0 0 80 53" fill="none" xmlns="http://www.w3.org/2000/svg">
<g clip-path="url(#clip0_2_601)">
<path d="M5.04008 31.8046C5.37552 32.6948 5.83992 33.4559 6.43338 34.088C7.02684 34.7201 7.72992 35.2039 8.54261 35.5393C9.35538 35.8748 10.2391 36.0425 11.1937 36.0425C12.1226 36.0425 12.9934 35.8683 13.8062 35.5199C14.6189 35.1715 15.3284 34.6814 15.9347 34.0493C16.541 33.4171 17.012 32.6625 17.3474 31.7852C17.6828 30.908 17.8505 29.9276 17.8505 28.8439V12.1246H21.9142V39.216H17.8892V36.7003C16.9862 37.6549 15.9218 38.3903 14.6963 38.9064C13.4706 39.4224 12.1484 39.6804 10.7293 39.6804C9.28439 39.6804 7.9363 39.4288 6.6849 38.9257C5.43358 38.4226 4.34985 37.7066 3.43397 36.7777C2.51809 35.8488 1.79558 34.7331 1.26669 33.43C0.737712 32.1271 0.473267 30.6758 0.473267 29.076V12.1246H4.53697V28.8439C4.53697 29.9276 4.70464 30.9144 5.04008 31.8046Z" fill="#010202"/>
<path d="M28.9189 12.1246V21.9936C29.822 21.0905 30.867 20.3746 32.0538 19.8456C33.2406 19.3167 34.5308 19.0522 35.924 19.0522C37.3689 19.0522 38.7233 19.3231 39.9877 19.8649C41.2519 20.4067 42.3484 21.1421 43.2773 22.071C44.2062 22.9999 44.9416 24.0964 45.4834 25.3606C46.0252 26.6249 46.2961 27.9666 46.2961 29.3857C46.2961 30.8047 46.0252 32.1399 45.4834 33.3912C44.9416 34.6426 44.2062 35.7328 43.2773 36.6615C42.3484 37.5904 41.2519 38.3258 39.9877 38.8676C38.7233 39.4094 37.3688 39.6803 35.924 39.6803C34.5307 39.6803 33.2342 39.4158 32.0345 38.8869C30.8347 38.358 29.7833 37.642 28.8802 36.7389V39.2159H25.0101V12.1246H28.9189ZM29.364 32.0561C29.7123 32.8818 30.1961 33.6042 30.8153 34.2235C31.4346 34.8427 32.157 35.333 32.9826 35.6942C33.8083 36.0554 34.6984 36.236 35.6531 36.236C36.582 36.236 37.4592 36.0554 38.2848 35.6942C39.1104 35.333 39.8263 34.8428 40.4328 34.2235C41.0391 33.6043 41.5229 32.8818 41.8841 32.0561C42.2453 31.2305 42.4259 30.3404 42.4259 29.3857C42.4259 28.431 42.2453 27.5344 41.8841 26.6959C41.5229 25.8573 41.0391 25.1285 40.4328 24.5092C39.8264 23.8901 39.1105 23.4062 38.2848 23.0579C37.4591 22.7097 36.5819 22.5354 35.6531 22.5354C34.7243 22.5354 33.847 22.7096 33.0214 23.0579C32.1958 23.4063 31.4734 23.8901 30.854 24.5092C30.2349 25.1285 29.7446 25.8573 29.3834 26.6959C29.0222 27.5344 28.8416 28.431 28.8416 29.3857C28.8415 30.3404 29.0157 31.2305 29.364 32.0561Z" fill="#010202"/>
<path d="M48.5016 25.3993C49.0176 24.1609 49.7272 23.0708 50.6302 22.1291C51.5331 21.1873 52.604 20.4455 53.8425 19.9037C55.081 19.3619 56.4226 19.091 57.8675 19.091C59.2866 19.091 60.6024 19.349 61.8151 19.865C63.0277 20.3811 64.0727 21.0971 64.9499 22.013C65.8272 22.9289 66.511 24.0126 67.0011 25.2639C67.4914 26.5154 67.7365 27.8764 67.7365 29.3471V30.6243H51.6752C51.8042 31.4241 52.0623 32.1659 52.4493 32.8495C52.8363 33.5332 53.32 34.1267 53.9005 34.6298C54.4811 35.133 55.139 35.5265 55.8744 35.8102C56.6097 36.094 57.3901 36.236 58.2158 36.236C60.5638 36.236 62.4602 35.2684 63.9051 33.3333L66.7303 35.4232C65.7499 36.739 64.5373 37.7711 63.0924 38.5193C61.6475 39.2675 60.022 39.6417 58.2159 39.6417C56.7452 39.6417 55.3713 39.3836 54.0942 38.8676C52.817 38.3517 51.7076 37.6291 50.7658 36.7003C49.8241 35.7714 49.0823 34.6813 48.5405 33.43C47.9987 32.1787 47.7277 30.8175 47.7277 29.3469C47.7275 27.9537 47.9856 26.6378 48.5016 25.3993ZM53.9392 23.8706C52.8427 24.7865 52.1138 26.0056 51.7526 27.5279H63.789C63.4535 26.0056 62.7375 24.7865 61.641 23.8706C60.5444 22.9547 59.2608 22.4967 57.7901 22.4967C56.3194 22.4967 55.0358 22.9547 53.9392 23.8706Z" fill="#010202"/>
<path d="M75.0511 24.3157C74.2254 25.2187 73.8126 26.4443 73.8126 27.9924V39.2161H69.9036V19.478H73.7738V21.9162C74.2641 21.1164 74.9027 20.4842 75.6896 20.0198C76.4765 19.5553 77.4118 19.3231 78.4955 19.3231H79.8501V22.9611H78.2246C76.9346 22.9612 75.8767 23.4126 75.0511 24.3157Z" fill="#010202"/>
</g>
<defs>
<clipPath id="clip0_2_601">
<rect width="79.3607" height="52.9071" fill="white" transform="translate(0.473267)"/>
</clipPath>
</defs>
</svg>
