<svg width="188" height="37" viewBox="0 0 188 37" fill="none" xmlns="http://www.w3.org/2000/svg">
<path d="M39.8092 3.31301C36.7676 1.8899 33.5153 0.85564 30.1151 0.266724C29.6975 1.02169 29.2097 2.03714 28.8733 2.84493C25.2589 2.30136 21.6776 2.30136 18.1297 2.84493C17.7934 2.03714 17.2944 1.02169 16.8731 0.266724C13.4693 0.85564 10.2133 1.8937 7.17161 3.32054C1.03658 12.5914 -0.626524 21.6319 0.205031 30.5441C4.27411 33.5828 8.21753 35.4287 12.0944 36.6366C13.0516 35.3192 13.9053 33.9188 14.6408 32.4429C13.2401 31.9106 11.8985 31.2538 10.6309 30.4913C10.9672 30.2422 11.2962 29.9817 11.614 29.7137C19.3456 33.3299 27.7461 33.3299 35.3853 29.7137C35.7069 29.9817 36.0358 30.2422 36.3684 30.4913C35.097 31.2576 33.7518 31.9144 32.3511 32.4467C33.0866 33.9188 33.9366 35.323 34.8975 36.6404C38.7781 35.4325 42.7252 33.5866 46.7943 30.5441C47.77 20.2126 45.1275 11.2551 39.8092 3.31301ZM15.6941 25.0632C13.3732 25.0632 11.4698 22.8965 11.4698 20.2579C11.4698 17.6194 13.3325 15.4489 15.6941 15.4489C18.0558 15.4489 19.9591 17.6156 19.9184 20.2579C19.9221 22.8965 18.0558 25.0632 15.6941 25.0632ZM31.3052 25.0632C28.9842 25.0632 27.0809 22.8965 27.0809 20.2579C27.0809 17.6194 28.9435 15.4489 31.3052 15.4489C33.6668 15.4489 35.5701 17.6156 35.5295 20.2579C35.5295 22.8965 33.6668 25.0632 31.3052 25.0632Z" fill="#23272A"/>
<path d="M63.1477 9.54593H73.2369C75.6691 9.54593 77.7239 9.93472 79.4095 10.7086C81.0907 11.4823 82.3512 12.5619 83.1866 13.9435C84.0214 15.3251 84.4426 16.9067 84.4426 18.6884C84.4426 20.4323 84.0066 22.014 83.1345 23.4295C82.2623 24.8488 80.9354 25.9699 79.1506 26.7966C77.3657 27.6233 75.1551 28.0385 72.5129 28.0385H63.1477V9.54593ZM72.4092 23.3389C74.0466 23.3389 75.3071 22.9199 76.1864 22.0857C77.0662 21.2477 77.5061 20.1077 77.5061 18.662C77.5061 17.3219 77.1139 16.2536 76.3306 15.4534C75.5474 14.6531 74.3609 14.2493 72.7751 14.2493H69.6189V23.3389H72.4092Z" fill="#23272A"/>
<path d="M99.5476 28.0159C98.1506 27.646 96.89 27.11 95.7705 26.4041V22.0178C96.6169 22.6859 97.7512 23.2371 99.174 23.6712C100.597 24.1015 101.972 24.3166 103.302 24.3166C103.923 24.3166 104.393 24.2336 104.71 24.0675C105.028 23.9014 105.188 23.7014 105.188 23.4711C105.188 23.2069 105.103 22.988 104.929 22.8105C104.755 22.6331 104.418 22.4859 103.92 22.3613L100.815 21.6479C99.0375 21.2251 97.777 20.64 97.0272 19.8888C96.2768 19.1414 95.9032 18.16 95.9032 16.9445C95.9032 15.9215 96.2285 15.0345 96.8868 14.2758C97.5406 13.5171 98.472 12.9319 99.6803 12.5205C100.889 12.1053 102.301 11.8977 103.923 11.8977C105.372 11.8977 106.699 12.0562 107.908 12.3733C109.116 12.6904 110.114 13.0943 110.909 13.5887V17.7372C110.095 17.2428 109.164 16.854 108.1 16.5595C107.039 16.2688 105.949 16.1254 104.825 16.1254C103.202 16.1254 102.393 16.4085 102.393 16.9709C102.393 17.2352 102.519 17.4315 102.77 17.5636C103.021 17.6957 103.483 17.8316 104.152 17.975L106.739 18.4507C108.429 18.7489 109.689 19.2736 110.516 20.021C111.345 20.7684 111.758 21.8744 111.758 23.339C111.758 24.9432 111.075 26.2154 109.703 27.1591C108.332 28.1028 106.388 28.5746 103.868 28.5746C102.386 28.5708 100.945 28.3858 99.5476 28.0159Z" fill="#23272A"/>
<path d="M117.865 27.4608C116.383 26.721 115.263 25.7169 114.517 24.4486C113.77 23.1802 113.393 21.7534 113.393 20.168C113.393 18.5826 113.781 17.1633 114.557 15.9138C115.333 14.6644 116.472 13.6829 117.972 12.9695C119.473 12.2561 121.265 11.9012 123.353 11.9012C125.94 11.9012 128.088 12.4562 129.795 13.5659V18.4014C129.193 17.9786 128.49 17.6351 127.688 17.3709C126.886 17.1067 126.029 16.9745 125.112 16.9745C123.509 16.9745 122.256 17.2727 121.35 17.8729C120.444 18.4731 119.99 19.2545 119.99 20.2246C119.99 21.1758 120.43 21.9535 121.31 22.565C122.189 23.1727 123.464 23.4785 125.138 23.4785C125.999 23.4785 126.85 23.3501 127.688 23.0972C128.524 22.8405 129.244 22.5272 129.847 22.1573V26.8342C127.951 27.9968 125.752 28.5781 123.25 28.5781C121.143 28.5706 119.347 28.2007 117.865 27.4608Z" fill="#23272A"/>
<path d="M136.248 27.4611C134.755 26.7213 133.617 25.7096 132.833 24.4224C132.049 23.1352 131.654 21.7008 131.654 20.1154C131.654 18.5301 132.046 17.1145 132.833 15.8726C133.62 14.6307 134.751 13.6568 136.237 12.9509C137.718 12.245 139.489 11.894 141.54 11.894C143.591 11.894 145.361 12.245 146.843 12.9509C148.326 13.6568 149.457 14.6232 150.233 15.8575C151.009 17.0919 151.397 18.5074 151.397 20.1117C151.397 21.6971 151.009 23.1315 150.233 24.4186C149.457 25.7058 148.322 26.7175 146.829 27.4574C145.336 28.1972 143.573 28.5671 141.537 28.5671C139.5 28.5671 137.737 28.201 136.248 27.4611ZM144.109 22.7729C144.737 22.1312 145.055 21.2819 145.055 20.2249C145.055 19.168 144.74 18.3262 144.109 17.7033C143.481 17.0767 142.623 16.7634 141.537 16.7634C140.431 16.7634 139.566 17.0767 138.934 17.7033C138.306 18.33 137.992 19.168 137.992 20.2249C137.992 21.2819 138.306 22.1312 138.934 22.7729C139.563 23.4146 140.431 23.7392 141.537 23.7392C142.623 23.7354 143.481 23.4146 144.109 22.7729Z" fill="#23272A"/>
<path d="M166.941 12.8754V18.5828C166.283 18.1412 165.433 17.9222 164.38 17.9222C163.001 17.9222 161.937 18.3488 161.197 19.2019C160.455 20.055 160.085 21.3837 160.085 23.1805V28.0424H153.747V12.5848H159.956V17.4995C160.3 15.7027 160.858 14.3778 161.626 13.5209C162.392 12.6678 163.382 12.2413 164.587 12.2413C165.5 12.2413 166.283 12.4527 166.941 12.8754Z" fill="#23272A"/>
<path d="M188 9.01741V28.0422H181.661V24.5808C181.126 25.8831 180.313 26.8759 179.219 27.5553C178.125 28.231 176.772 28.5707 175.168 28.5707C173.734 28.5707 172.485 28.2159 171.417 27.5025C170.349 26.789 169.525 25.8114 168.945 24.5695C168.368 23.3276 168.076 21.9234 168.076 20.3531C168.058 18.7337 168.364 17.2804 168.996 15.9932C169.625 14.706 170.515 13.7019 171.661 12.9809C172.807 12.26 174.115 11.8976 175.582 11.8976C178.602 11.8976 180.627 13.2376 181.661 15.9139V9.01741H188ZM180.716 22.667C181.363 22.0253 181.684 21.1911 181.684 20.1719C181.684 19.1867 181.37 18.3826 180.742 17.7674C180.113 17.1521 179.252 16.8425 178.169 16.8425C177.101 16.8425 176.248 17.1558 175.608 17.7824C174.968 18.4091 174.651 19.2206 174.651 20.2247C174.651 21.2288 174.968 22.048 175.608 22.6821C176.248 23.3162 177.09 23.6333 178.143 23.6333C179.211 23.6296 180.069 23.3087 180.716 22.667Z" fill="#23272A"/>
<path d="M89.7839 14.2302C91.5288 14.2302 92.9439 12.9322 92.9439 11.3311C92.9439 9.73004 91.5288 8.43215 89.7839 8.43215C88.0383 8.43215 86.6238 9.73004 86.6238 11.3311C86.6238 12.9322 88.0383 14.2302 89.7839 14.2302Z" fill="#23272A"/>
<path d="M86.6211 16.2272C88.5573 17.0803 90.9598 17.118 92.9405 16.2272V28.1253H86.6211V16.2272Z" fill="#23272A"/>
</svg>
