<svg width="106" height="53" viewBox="0 0 106 53" fill="none" xmlns="http://www.w3.org/2000/svg">
<path fill-rule="evenodd" clip-rule="evenodd" d="M45.1604 16.7869C47.0938 16.4196 49.0271 16.0329 50.9411 15.6656C50.9218 24.2303 50.9218 32.7756 50.9411 41.321C49.0271 40.9343 47.0938 40.5283 45.1798 40.161C45.1218 39.407 45.1604 38.653 45.1604 37.899C45.1411 30.881 45.1411 23.8436 45.1604 16.7869ZM91.9279 20.5763C90.3039 20.6149 88.6412 21.1176 87.3845 22.1616C86.3405 23.0123 85.5865 24.1723 85.1612 25.4483C84.6972 26.821 84.6005 28.3096 84.7745 29.7596C84.9679 31.4223 85.6252 33.0656 86.7852 34.2836C87.6939 35.2503 88.9312 35.927 90.2265 36.217C91.8505 36.5843 93.6099 36.5263 95.1372 35.811C96.2586 35.3083 97.1866 34.419 97.8439 33.375C98.5786 32.1956 98.9459 30.823 99.0619 29.431C99.1972 27.865 99.0232 26.2603 98.4432 24.791C97.9406 23.4763 97.0319 22.2969 95.8139 21.5429C94.6539 20.8276 93.2812 20.5183 91.9279 20.5763ZM91.0772 15.1823C93.8805 14.9889 96.8192 15.5109 99.2359 16.9996C100.589 17.8309 101.749 18.9329 102.658 20.2283C103.451 21.3883 104.031 22.6836 104.437 24.0369C104.862 25.487 105.017 27.0143 105.036 28.5223C105.036 31.287 104.398 34.1096 102.871 36.449C101.537 38.537 99.5066 40.161 97.1866 41.0117C95.6786 41.5723 94.0932 41.843 92.4885 41.8817C89.4725 41.9397 86.3599 41.205 83.9045 39.4263C81.8165 37.9377 80.2892 35.753 79.5158 33.317C78.9745 31.693 78.7618 29.953 78.7812 28.2323C78.8005 25.2356 79.6705 22.1809 81.5458 19.8223C83.0732 17.8696 85.2579 16.4776 87.6359 15.7816C88.7379 15.4336 89.8979 15.2403 91.0772 15.1823ZM8.19499 16.3229C9.587 15.5109 11.1917 15.1243 12.7963 15.1436C15.3483 15.2403 17.8037 16.5549 19.2924 18.6429C20.0464 17.6183 21.0904 16.8256 22.2117 16.2649C24.7444 15.0469 27.8184 14.8536 30.4284 15.9169C31.6464 16.4196 32.7484 17.1929 33.5991 18.1983C34.4691 19.2229 35.0491 20.4603 35.3971 21.7363C35.7644 23.0703 35.8611 24.4623 35.8224 25.835C35.8224 30.997 35.8224 36.1783 35.8224 41.3403C33.9084 40.9537 31.9751 40.5477 30.0417 40.1803C30.0224 35.231 30.0417 30.2816 30.0224 25.3323C30.0417 24.1916 29.6357 23.0316 28.8237 22.2389C27.9537 21.3496 26.6777 20.9243 25.4404 20.9436C24.3384 20.9243 23.217 21.2529 22.347 21.9489C21.361 22.7223 20.839 23.9983 20.839 25.255C20.839 30.6103 20.839 35.985 20.839 41.3403C18.9057 40.9537 16.9723 40.5477 15.039 40.1803C15.0197 38.595 15.039 36.9903 15.0197 35.3856C15.0197 32.0603 15.0197 28.735 15.0197 25.3903C15.0583 24.2496 14.6717 23.0703 13.8597 22.2583C13.1443 21.5236 12.1583 21.0983 11.1723 20.9823C10.225 20.8856 9.25833 20.9629 8.36899 21.3303C7.44099 21.7169 6.64832 22.4516 6.22299 23.3603C5.93299 23.9789 5.79765 24.6556 5.79765 25.3323C5.79765 29.5083 5.79765 33.6843 5.79765 37.8603C5.81699 39.0203 5.77832 40.1803 5.81699 41.3403C3.88365 40.973 1.96964 40.5477 0.0556382 40.1997C0.0169714 39.523 0.0749716 38.827 0.0169714 38.1697C0.0363048 37.3963 0.0363048 36.623 0.0169714 35.8496C0.0749716 35.1343 0.0169714 34.3996 0.0363048 33.6843C0.0363048 31.635 0.0363048 29.5856 0.0363048 27.5363C0.0169714 26.2603 0.0556382 24.9649 0.0169714 23.6889C0.0363048 22.9736 0.0363048 22.2389 0.0169714 21.5236C0.0556382 20.0929 0.0363048 18.6816 0.0363048 17.2509C0.0556382 17.1156 -0.0603621 16.9029 0.094305 16.8256C2.00831 16.4583 3.90298 16.0909 5.81699 15.7236C5.79765 16.5936 5.81699 17.4636 5.81699 18.3336C6.49365 17.5216 7.28632 16.8256 8.19499 16.3229ZM71.2605 15.5303C72.1885 15.3756 73.1358 15.2209 74.0638 15.0663C74.0638 17.0769 74.0638 19.0876 74.0638 21.0983C73.1358 21.2723 72.2078 21.4463 71.2798 21.6009C69.8878 21.8329 68.4378 22.2389 67.3938 23.2443C66.5431 24.0369 66.1371 25.197 66.0598 26.3376C66.0018 27.1496 66.0405 27.9616 66.0405 28.793C66.0405 32.969 66.0405 37.145 66.0405 41.321C64.4358 40.9923 62.8311 40.6637 61.2071 40.3543C60.8978 40.2963 60.6078 40.219 60.2791 40.1803C60.2018 39.7357 60.2598 39.291 60.2405 38.8463C60.2405 34.3996 60.2405 29.9723 60.2405 25.5256C60.2791 24.1336 60.5111 22.7223 61.0911 21.4269C61.6518 20.1316 62.6378 19.0296 63.7978 18.2176C65.3445 17.1543 67.1425 16.5163 68.9598 16.0329C69.7332 15.8589 70.4678 15.6463 71.2605 15.5303ZM47.4804 4.45223C48.4084 4.33623 49.4138 4.4329 50.2064 4.99357C51.1151 5.5929 51.6178 6.67557 51.6371 7.73891C51.6951 8.04824 51.6178 8.37691 51.6178 8.68624C51.5211 9.65291 51.0184 10.5809 50.1871 11.1222C49.3171 11.7023 48.1958 11.7989 47.1711 11.5863C46.3204 11.4122 45.5278 10.8709 45.0444 10.1169C44.4838 9.22758 44.3871 8.10624 44.5998 7.08157C44.7931 6.1149 45.4504 5.22557 46.3398 4.80023C46.7071 4.62623 47.0938 4.51023 47.4804 4.45223Z" fill="#050038"/>
</svg>
