<svg width="169" height="53" viewBox="0 0 169 53" fill="none" xmlns="http://www.w3.org/2000/svg">
<g clip-path="url(#clip0_2_598)">
<path d="M144.427 25.2812V38.5653H148.673V29.7092H164.201V38.5653H168.447V25.2812H144.427ZM148.188 20.9744H164.565C166.87 20.5498 168.508 18.4874 168.993 16.5464H143.76C144.245 18.4874 145.943 20.4892 148.188 20.9744ZM131.507 38.5653C133.63 37.6554 134.782 36.0783 135.267 34.2585H116.16V16.607H111.853V38.5653H131.507ZM80.008 20.9138H95.1725C97.4775 20.2465 99.3579 18.4874 99.8431 16.607H75.8226V29.5879H95.4758V34.1372H80.0686C77.6423 34.8045 75.5799 36.4422 74.5487 38.5653H99.7218V25.2812H80.0686L80.008 20.9138ZM42.6426 20.9744H59.0203C61.3253 20.5498 63.0237 18.4874 63.4483 16.5464H38.1539C38.6392 18.4874 40.3376 20.4892 42.6426 20.9744ZM42.6426 29.6485H59.0203C61.3253 29.2239 63.0237 27.1616 63.4483 25.2205H38.1539C38.6392 27.1616 40.3376 29.1633 42.6426 29.6485ZM42.6426 38.5653H59.0203C61.3253 38.1407 63.0237 36.0783 63.4483 34.1372H38.1539C38.6392 36.0783 40.3376 38.1407 42.6426 38.5653Z" fill="#5E5E5E"/>
<path d="M0 16.607C0.485264 18.5481 2.18369 20.4892 4.42804 20.9744H11.3431L11.707 21.0957V38.5046H16.0137V21.0957L16.3777 20.9744H23.2927C25.5977 20.3678 27.2355 18.5481 27.7207 16.607V16.5464L0 16.607Z" fill="#5E5E5E"/>
</g>
<defs>
<clipPath id="clip0_2_598">
<rect width="168.642" height="52.9071" fill="white"/>
</clipPath>
</defs>
</svg>
