<svg width="73" height="73" viewBox="0 0 73 73" fill="none" xmlns="http://www.w3.org/2000/svg">
<path d="M33.3318 7.81802C34.2296 7.31948 35.2395 7.05786 36.2664 7.05786C37.2933 7.05786 38.3032 7.31948 39.2009 7.81802L61.9127 20.4327C62.3836 20.6945 62.7759 21.0775 63.049 21.5419C63.3221 22.0063 63.4661 22.5353 63.4661 23.074V47.9618C63.4659 49.0397 63.1774 50.0978 62.6306 51.0267C62.0838 51.9556 61.2986 52.7213 60.3563 53.2446L39.2009 65.0009C38.3032 65.4995 37.2933 65.7611 36.2664 65.7611C35.2395 65.7611 34.2296 65.4995 33.3318 65.0009L12.1765 53.2446C11.2346 52.7215 10.4497 51.9563 9.90294 51.028C9.35617 50.0997 9.06744 49.0422 9.06665 47.9648V23.074C9.06663 22.5353 9.21064 22.0063 9.48376 21.5419C9.75688 21.0775 10.1492 20.6945 10.6201 20.4327L33.3349 7.81802H33.3318Z" stroke="#EB4C56" stroke-width="3.45393" stroke-linecap="round" stroke-linejoin="round"/>
<path d="M22.6666 13.7415L49.8663 28.8524V39.4301M18.1333 37.3992L27.1999 42.4523" stroke="#EB4C56" stroke-width="3.45393" stroke-linecap="round" stroke-linejoin="round"/>
<path d="M9.06665 21.2971L36.2664 36.4081M36.2664 36.4081L63.4661 21.2971M36.2664 36.4081V66.63" stroke="#EB4C56" stroke-width="3.45393" stroke-linejoin="round"/>
</svg>
