<svg width="74" height="73" viewBox="0 0 74 73" fill="none" xmlns="http://www.w3.org/2000/svg">
<g clip-path="url(#clip0_2_738)">
<path d="M61.0003 25.1826H64.2098C65.8129 25.1826 67.3503 25.8194 68.4839 26.953C69.6174 28.0865 70.2542 29.6239 70.2542 31.227V43.3158C70.2542 44.9188 69.6174 46.4562 68.4839 47.5898C67.3503 48.7233 65.8129 49.3601 64.2098 49.3601H61.0003C60.2635 55.203 57.4198 60.576 53.0028 64.4711C48.5858 68.3661 42.8992 70.5154 37.0101 70.5155V64.4711C41.8193 64.4711 46.4316 62.5607 49.8322 59.16C53.2328 55.7594 55.1433 51.1472 55.1433 46.338V28.2048C55.1433 23.3956 53.2328 18.7834 49.8322 15.3827C46.4316 11.9821 41.8193 10.0716 37.0101 10.0716C32.2009 10.0716 27.5887 11.9821 24.188 15.3827C20.7874 18.7834 18.877 23.3956 18.877 28.2048V49.3601H9.81038C8.20731 49.3601 6.66989 48.7233 5.53635 47.5898C4.40281 46.4562 3.76599 44.9188 3.76599 43.3158V31.227C3.76599 29.6239 4.40281 28.0865 5.53635 26.953C6.66989 25.8194 8.20731 25.1826 9.81038 25.1826H13.0199C13.7575 19.3404 16.6015 13.9681 21.0184 10.0737C25.4353 6.1793 31.1215 4.03052 37.0101 4.03052C42.8987 4.03052 48.5849 6.1793 53.0018 10.0737C57.4187 13.9681 60.2628 19.3404 61.0003 25.1826ZM9.81038 31.227V43.3158H12.8326V31.227H9.81038ZM61.1876 31.227V43.3158H64.2098V31.227H61.1876ZM24.196 48.7104L27.3995 43.5847C30.2799 45.3891 33.6112 46.3434 37.0101 46.338C40.409 46.3434 43.7403 45.3891 46.6207 43.5847L49.8242 48.7104C45.9838 51.1165 41.542 52.3893 37.0101 52.3823C32.4782 52.3893 28.0364 51.1165 24.196 48.7104Z" fill="#EB4C56"/>
</g>
<defs>
<clipPath id="clip0_2_738">
<rect width="72.5326" height="72.5326" fill="white" transform="translate(0.743774 0.141602)"/>
</clipPath>
</defs>
</svg>
