<svg width="33" height="29" viewBox="0 0 33 29" fill="none" xmlns="http://www.w3.org/2000/svg">
<path d="M5.14 16.8787L6.10484 16.6211L5.14 16.8787ZM5.14 10.4946L6.10484 10.7522L6.10484 10.7522L5.14 10.4946ZM25.7433 10.4946L26.7081 10.237L26.7081 10.237L25.7433 10.4946ZM25.7433 16.8787L26.7081 17.1363L25.7433 16.8787ZM19.0747 22.7378L18.8731 21.7598L19.0747 22.7378ZM11.8086 22.7378L11.607 23.7159L11.8086 22.7378ZM11.8086 4.63548L11.607 3.6574L11.8086 4.63548ZM19.0747 4.63548L19.2763 3.6574L19.0747 4.63548ZM28.0277 26.0743C28.442 26.4383 29.073 26.3975 29.437 25.9832C29.801 25.5689 29.7603 24.9379 29.3459 24.5739L28.0277 26.0743ZM6.10484 16.6211C5.58937 14.6904 5.58937 12.683 6.10484 10.7522L4.17516 10.237C3.56958 12.5053 3.56958 14.868 4.17516 17.1363L6.10484 16.6211ZM24.7784 10.7522C25.2939 12.683 25.2939 14.6904 24.7784 16.6211L26.7081 17.1363C27.3137 14.868 27.3137 12.5053 26.7081 10.237L24.7784 10.7522ZM18.8731 21.7598C16.6165 22.2248 14.2668 22.2248 12.0101 21.7598L11.607 23.7159C14.1296 24.2358 16.7537 24.2358 19.2763 23.7159L18.8731 21.7598ZM12.0101 5.61356C14.2668 5.14848 16.6165 5.14848 18.8731 5.61356L19.2763 3.6574C16.7537 3.13751 14.1296 3.13751 11.607 3.6574L12.0101 5.61356ZM12.0101 21.7598C9.0153 21.1425 6.76948 19.1106 6.10484 16.6211L4.17516 17.1363C5.06283 20.4612 7.98415 22.9693 11.607 23.7159L12.0101 21.7598ZM19.2763 23.7159C22.8991 22.9693 25.8204 20.4612 26.7081 17.1363L24.7784 16.6211C24.1138 19.1106 21.868 21.1425 18.8731 21.7598L19.2763 23.7159ZM18.8731 5.61356C21.868 6.23078 24.1138 8.26267 24.7784 10.7522L26.7081 10.237C25.8204 6.9121 22.8991 4.40405 19.2763 3.6574L18.8731 5.61356ZM11.607 3.6574C7.98415 4.40405 5.06283 6.9121 4.17516 10.237L6.10484 10.7522C6.76948 8.26267 9.0153 6.23078 12.0101 5.61356L11.607 3.6574ZM23.1479 21.7868L28.0277 26.0743L29.3459 24.5739L24.4661 20.2864L23.1479 21.7868Z" fill="#EB4C56"/>
</svg>
